<?xml version="1.0"?>
<svg version="1.1" xmlns="http://www.w3.org/2000/svg" width="607px" height="200px" style="border: dashed 2px #aaa"><path fill="#ff2929" d="M123.38,129.46c0,0.54-0.24,0.9-0.96,1.2c-3.96,1.62-7.56,2.46-11.94,2.46c-12.66,0-18.84-8.94-18.84-21.3c0-12.3,7.38-21.72,19.44-21.72c4.14,0,7.86,0.84,11.28,2.52c0.72,0.36,0.96,0.66,0.96,1.02c0,0.24-0.06,0.48-0.18,0.78l-1.38,3.78c-0.18,0.54-0.48,0.78-0.84,0.78c-0.18,0-0.42-0.12-0.66-0.24c-3-1.56-5.7-2.16-8.7-2.16c-8.34,0-11.58,7.68-11.58,14.94c0,9.24,4.32,15.12,11.7,15.12c2.88,0,5.82-0.66,8.64-1.92c0.3-0.12,0.54-0.24,0.72-0.24c0.42,0,0.72,0.3,0.96,0.9l1.2,3.24c0.12,0.3,0.18,0.6,0.18,0.84z M159.29,117.82c0,8.64-5.28,15.3-14.64,15.3c-9.78,0-14.28-6.6-14.28-15.36c0-8.64,5.28-15.24,14.64-15.24c9.78,0,14.28,6.48,14.28,15.3z M151.79,117.82c0-4.92-1.56-9.6-6.84-9.6c-5.34,0-7.08,4.62-7.08,9.42c0,4.92,1.5,9.78,6.84,9.78c5.28,0,7.08-4.68,7.08-9.6z M194.54,130.9c0,1.02-0.6,1.5-1.32,1.5l-3.9,0c-0.96,0-1.38-0.48-1.44-1.2l-0.12-1.62c-1.68,1.92-5.04,3.54-8.16,3.54c-8.7,0-12.66-6.9-12.66-14.94c0-8.4,4.68-15.72,13.14-15.72c2.7,0,5.52,1.08,7.2,2.82l0-13.5c0-1.08,0.3-1.5,1.26-1.62l4.44-0.6c0.06,0,0.54-0.06,0.6-0.06c0.72,0,0.96,0.3,0.96,1.2l0,40.2z M187.28,124.24l0-13.02c-1.2-1.62-3.48-2.94-5.76-2.94c-4.86,0-7.02,4.56-7.02,9.48s1.8,9.48,6.66,9.48c2.22,0,4.92-1.5,6.12-3z M231.11,117.76c0,1.44-0.48,1.74-1.98,1.74l-17.58,0c0.48,4.62,3.84,7.8,8.58,7.8c2.52,0,5.16-0.6,7.38-1.44c0.24-0.06,0.42-0.18,0.66-0.18c0.42,0,0.72,0.24,0.84,0.72l0.84,3.06c0.06,0.3,0.12,0.54,0.12,0.72c0,0.42-0.24,0.72-0.96,1.02c-2.94,1.32-6.96,1.92-10.08,1.92c-9.42,0-15-6-15-15.36c0-9,5.94-15.24,14.88-15.24c3.66,0,6.66,1.38,8.76,3.6c2.76,2.88,3.54,6.66,3.54,10.74l0,0.9z M223.97,114.76l0-0.66c-0.12-3.12-1.92-6-5.58-6c-3.9,0-6.24,3.12-6.72,6.66l12.3,0z M276.44,135.04c0,0.12,0,0.24-0.06,0.42l-0.96,3.3c-0.24,0.78-0.6,1.32-1.26,1.32c-0.48,0-1.68-0.24-2.34-0.42c-3.66-1.08-6.66-3.42-9.06-4.98c-1.56-1.02-2.58-1.68-4.86-1.68c-0.9,0-1.74,0-2.58-0.06c-10.92-0.66-16.38-9.66-16.38-21.12c0-12,6.54-21.72,18.48-21.72c12.36,0,18.06,9.72,18.06,21.3c0,8.28-3,15.36-8.94,19.02c2.16,1.2,5.4,2.58,8.1,3.24c1.38,0.36,1.8,0.66,1.8,1.38z M267.2,111.58c0-9-2.94-14.94-9.96-14.94c-6.54,0-10.02,6.54-10.02,14.94c0,8.88,3,15.12,10.02,15.12c6.6,0,9.96-6.42,9.96-15.12z M310.91,130.72c0,1.26-0.36,1.68-1.56,1.68l-3.84,0c-0.78,0-1.38-0.42-1.44-1.2l-0.06-1.5c-2.76,2.22-6.06,3.42-9.54,3.42c-6.72,0-9.48-4.26-9.48-10.74l0-17.7c0-1.02,0.6-1.38,1.56-1.38l4.2,0c0.96,0,1.5,0.3,1.5,1.38l0,16.44c0,3.3,0.84,5.58,4.44,5.58c2.28,0,5.16-1.26,6.96-2.88l0-19.14c0-1.02,0.54-1.38,1.5-1.38l4.26,0c0.96,0,1.5,0.3,1.5,1.38l0,26.04z M347.84,130.9c0,1.02-0.6,1.5-1.32,1.5l-3.9,0c-0.96,0-1.38-0.48-1.44-1.2l-0.12-1.62c-1.68,1.92-5.04,3.54-8.16,3.54c-8.7,0-12.66-6.9-12.66-14.94c0-8.4,4.68-15.72,13.14-15.72c2.7,0,5.52,1.08,7.2,2.82l0-13.5c0-1.08,0.3-1.5,1.26-1.62l4.44-0.6c0.06,0,0.54-0.06,0.6-0.06c0.72,0,0.96,0.3,0.96,1.2l0,40.2z M340.58,124.24l0-13.02c-1.2-1.62-3.48-2.94-5.76-2.94c-4.86,0-7.02,4.56-7.02,9.48s1.8,9.48,6.66,9.48c2.22,0,4.92-1.5,6.12-3z M384.83,130.9c0,1.02-0.6,1.5-1.32,1.5l-3.9,0c-0.96,0-1.38-0.48-1.44-1.2l-0.12-1.62c-1.68,1.92-5.04,3.54-8.16,3.54c-8.7,0-12.66-6.9-12.66-14.94c0-8.4,4.68-15.72,13.14-15.72c2.7,0,5.52,1.08,7.2,2.82l0-13.5c0-1.08,0.3-1.5,1.26-1.62l4.44-0.6c0.06,0,0.54-0.06,0.6-0.06c0.72,0,0.96,0.3,0.96,1.2l0,40.2z M377.57,124.24l0-13.02c-1.2-1.62-3.48-2.94-5.76-2.94c-4.86,0-7.02,4.56-7.02,9.48s1.8,9.48,6.66,9.48c2.22,0,4.92-1.5,6.12-3z M421.82,130.72c0,1.26-0.36,1.68-1.56,1.68l-3.84,0c-0.78,0-1.38-0.42-1.44-1.2l-0.06-1.5c-2.76,2.22-6.06,3.42-9.54,3.42c-6.72,0-9.48-4.26-9.48-10.74l0-17.7c0-1.02,0.6-1.38,1.56-1.38l4.2,0c0.96,0,1.5,0.3,1.5,1.38l0,16.44c0,3.3,0.84,5.58,4.44,5.58c2.28,0,5.16-1.26,6.96-2.88l0-19.14c0-1.02,0.54-1.38,1.5-1.38l4.26,0c0.96,0,1.5,0.3,1.5,1.38l0,26.04z M452.27,123.82c0,6.3-5.46,9.3-11.58,9.3c-3.12,0-6.54-0.9-9.24-2.1c-0.54-0.24-0.72-0.6-0.72-0.96c0-0.18,0.06-0.36,0.12-0.54l0.96-3.06c0.18-0.6,0.48-0.84,0.84-0.84c0.18,0,0.36,0,0.66,0.12c2.64,1.08,5.46,1.86,7.56,1.86c2.64,0,4.44-1.2,4.44-3.18c0-1.68-1.14-2.58-3.6-3.54l-4.74-1.8c-3.42-1.26-6.18-3.9-6.18-7.98c0-5.88,5.52-8.58,10.86-8.58c2.88,0,5.7,0.48,8.7,1.8c0.48,0.24,0.72,0.48,0.72,0.84c0,0.18-0.06,0.36-0.12,0.6l-1.02,3.24c-0.12,0.42-0.42,0.66-0.84,0.66c-0.18,0-0.42-0.06-0.6-0.12c-1.98-0.78-4.56-1.44-6.48-1.44c-2.52,0-3.78,1.38-3.78,2.76c0,1.32,0.66,2.16,2.94,3.06l5.4,2.22c3.18,1.32,5.7,3.78,5.7,7.68z"/><path fill="#" d=""/></svg>
